<svg xmlns="http://www.w3.org/2000/svg" width="20.093" height="19.16" viewBox="0 0 20.093 19.16">
  <g id="Контур_42" data-name="Контур 42" transform="translate(-1.959 -2.435)" fill="none" stroke-linecap="round" stroke-linejoin="round" fill-rule="evenodd">
    <path d="M11,3.19a1.08,1.08,0,0,1,2.06,0l1.86,5.72h6a1.09,1.09,0,0,1,.64,2l-4.87,3.53,1.86,5.73a1.08,1.08,0,0,1-1.67,1.21L12,17.81,7.13,21.35a1.08,1.08,0,0,1-1.67-1.21l1.86-5.73L2.45,10.88a1.09,1.09,0,0,1,.64-2h6Z" stroke="none"/>
    <path d="M 12.02373123168945 4.853857040405273 L 10.51201820373535 9.35733699798584 C 10.30692863464355 9.968317031860352 9.734477996826172 10.37999629974365 9.089998245239258 10.37999629974365 L 4.316055297851562 10.37999629974365 L 8.20032787322998 13.19549655914307 C 8.726848602294922 13.57714653015137 8.947487831115723 14.25459671020508 8.746718406677246 14.8731164932251 L 7.282129287719727 19.38499641418457 L 11.11803817749023 16.59667587280273 C 11.64524841308594 16.21344757080078 12.35959815979004 16.21453666687012 12.88564777374268 16.59936714172363 L 16.7258129119873 19.40866851806641 L 15.26327800750732 14.90311622619629 C 15.06250858306885 14.28459644317627 15.28314781188965 13.60714626312256 15.80966854095459 13.22549629211426 L 19.69394111633301 10.40999698638916 L 14.91999816894531 10.40999698638916 C 14.27028846740723 10.40999698638916 13.69443798065186 9.991716384887695 13.49351787567139 9.373847007751465 L 12.02373123168945 4.853857040405273 M 12.02999782562256 2.434806823730469 C 12.50133800506592 2.434806823730469 12.91824817657471 2.740476608276367 13.05999851226807 3.189996719360352 L 14.91999816894531 8.90999698638916 L 20.91999816894531 8.90999698638916 C 21.40890502929688 8.891504287719727 21.8502082824707 9.201045989990234 21.99931716918945 9.667016983032227 C 22.14842796325684 10.1329870223999 21.96879768371582 10.64122676849365 21.55999755859375 10.90999698638916 L 16.68999862670898 14.43999671936035 L 18.54999923706055 20.16999626159668 C 18.70097732543945 20.61799621582031 18.54304885864258 21.11211585998535 18.16022872924805 21.38948631286621 C 17.77739715576172 21.66686630249023 17.2586669921875 21.66301536560059 16.87999725341797 21.37999725341797 L 11.99999809265137 17.80999755859375 L 7.129999160766602 21.34999656677246 C 6.751327514648438 21.63301467895508 6.232601165771484 21.63686752319336 5.849767684936523 21.3594856262207 C 5.466947555541992 21.08210754394531 5.309019088745117 20.58798599243164 5.459999084472656 20.13999557495117 L 7.319997787475586 14.40999698638916 L 2.44999885559082 10.87999629974365 C 2.04119873046875 10.61121654510498 1.861568450927734 10.10298633575439 2.010677337646484 9.637016296386719 C 2.159786224365234 9.171046257019043 2.601064682006836 8.861507415771484 3.089998245239258 8.879996299743652 L 9.089998245239258 8.879996299743652 L 10.99999809265137 3.189996719360352 C 11.14175796508789 2.740476608276367 11.55865859985352 2.434806823730469 12.02999782562256 2.434806823730469 Z" stroke="none" fill="#bf9f00"/>
  </g>
</svg>
