<svg xmlns="http://www.w3.org/2000/svg" width="64.889" height="48" viewBox="0 0 64.889 48">
  <g id="ic-social-youtube" transform="translate(1.502 1.5)">
    <path id="Контур_471" data-name="Контур 471" d="M32.926,49.675a132.434,132.434,0,0,0,22.737-1.39,8.248,8.248,0,0,0,5.622-4.51,41.92,41.92,0,0,0,2.533-16.558,41.921,41.921,0,0,0-2.533-16.558,9.051,9.051,0,0,0-5.622-4.51,132.435,132.435,0,0,0-22.736-1.39A132.433,132.433,0,0,0,10.19,6.148a8.248,8.248,0,0,0-5.622,4.51A41.92,41.92,0,0,0,2.035,27.217,41.92,41.92,0,0,0,4.568,43.775a9.051,9.051,0,0,0,5.622,4.51,132.435,132.435,0,0,0,22.737,1.39Z" transform="translate(-1.983 -4.717)" fill="none" stroke="#fff" stroke-linecap="round" stroke-linejoin="round" stroke-width="3"/>
    <path id="Контур_472" data-name="Контур 472" d="M9.53,26.078V10.818a1.854,1.854,0,0,1,2.811-1.637l12.727,7.661a1.823,1.823,0,0,1,0,3.089L12.342,27.716A1.854,1.854,0,0,1,9.53,26.078Z" transform="translate(13.782 4.052)" fill="none" stroke="#fff" stroke-linecap="round" stroke-linejoin="round" stroke-width="3"/>
  </g>
</svg>
