<svg xmlns="http://www.w3.org/2000/svg" width="342.373" height="55.494" viewBox="0 0 342.373 55.494">
  <g id="Сгруппировать_89" data-name="Сгруппировать 89" transform="translate(-124.232 -475.5)">
    <path id="Объединение_3" data-name="Объединение 3" d="M0,27.247A27.247,27.247,0,1,1,27.247,54.494,27.247,27.247,0,0,1,0,27.247ZM16.96,2.9A26.515,26.515,0,1,0,27.247.819,26.457,26.457,0,0,0,16.96,2.9ZM27.247,52.508h0a23.853,23.853,0,0,1-6.255-.781,25.165,25.165,0,0,1-9.24-4.53,23.571,23.571,0,0,1-4.42-4.41,25.173,25.173,0,0,1-4.6-9.41A23.446,23.446,0,0,1,2,28.061c-.009-.27-.013-.543-.013-.815A25.185,25.185,0,0,1,3.9,17.584a23.235,23.235,0,0,1,2.116-4.032A25.4,25.4,0,0,1,13.569,6a23.222,23.222,0,0,1,4-2.1,25.183,25.183,0,0,1,9.675-1.919c.272,0,.543,0,.812.013a23.439,23.439,0,0,1,5.3.731,25.167,25.167,0,0,1,9.4,4.573,23.594,23.594,0,0,1,4.489,4.5,25.169,25.169,0,0,1,4.469,9.116,23.842,23.842,0,0,1,.8,6.325v0h0a25.188,25.188,0,0,1-1.757,9.275,23.488,23.488,0,0,1-2.622,4.944,25.41,25.41,0,0,1-6.694,6.684,23.465,23.465,0,0,1-4.863,2.581,25.192,25.192,0,0,1-9.325,1.777h0Zm0-1.229a23.933,23.933,0,0,0,7.429-1.17L27.248,27.247h0V3.213h0a23.939,23.939,0,0,0-7.428,1.169l7.429,22.866h0Zm-13.437-4.1a24.022,24.022,0,0,0,4.082,2.216q.951.4,1.927.719l7.429-22.864h0L13.12,46.692Q13.461,46.94,13.81,47.176Zm27.564-.485a24.183,24.183,0,0,0,5.317-5.317L27.248,27.247h0ZM5.1,36.6a24.06,24.06,0,0,0,2.216,4.082q.236.35.485.692L27.247,27.247h0L4.383,34.677Q4.7,35.651,5.1,36.6Zm45.01-1.925a23.94,23.94,0,0,0,1.17-7.429H27.249ZM27.248,27.247h0Zm0,0h0Zm0,0h0L13.12,7.8A24.164,24.164,0,0,0,7.8,13.119L27.247,27.247h0Zm0,0h0Zm0,0,22.863-7.429q-.317-.975-.719-1.927a24.022,24.022,0,0,0-2.216-4.082q-.236-.349-.484-.69L27.248,27.247Zm0,0h0Zm0,0L41.376,7.8q-.342-.249-.692-.486A24.036,24.036,0,0,0,36.6,5.1q-.95-.4-1.924-.719L27.248,27.247Zm0,0L4.382,19.817a23.937,23.937,0,0,0-1.169,7.429H27.247Z" transform="translate(311.267 476)" fill="#e2af1f" stroke="rgba(0,0,0,0)" stroke-miterlimit="10" stroke-width="1"/>
    <path id="Контур_23" data-name="Контур 23" d="M39.757-72.283v.827a5.778,5.778,0,0,0-1.9.31,1.494,1.494,0,0,0-.889.993,8.146,8.146,0,0,0-.228,2.254v20.517a7.529,7.529,0,0,0,.248,2.234,1.5,1.5,0,0,0,.889.993,6.73,6.73,0,0,0,1.882.331V-43q-1.2-.083-3.082-.1t-3.826-.021q-2.11,0-3.95.021t-3,.1v-.827a8.5,8.5,0,0,0,2.13-.331A1.49,1.49,0,0,0,29-45.148a7.529,7.529,0,0,0,.248-2.234V-69.636l.372-.041L19.281-43H18.62L7.2-69.595v19.152a22.759,22.759,0,0,0,.248,3.868,2.786,2.786,0,0,0,1.117,1.923,6.658,6.658,0,0,0,2.73.827V-43q-.786-.083-2.089-.1t-2.461-.021q-.91,0-1.882.021a16.306,16.306,0,0,0-1.634.1v-.827A4.14,4.14,0,0,0,5.2-44.631a2.923,2.923,0,0,0,.848-1.779,21.289,21.289,0,0,0,.207-3.371V-67.9a8.925,8.925,0,0,0-.207-2.254,1.435,1.435,0,0,0-.869-.993,5.923,5.923,0,0,0-1.944-.31v-.827q.662.041,1.634.083t1.882.041q2.11,0,4.054-.041t3.516-.083l8.438,19.689L21.6-51.436l7.983-20.724h3.268q1.944,0,3.826-.041T39.757-72.283Zm25.191,0q-.165,1.944-.227,3.764t-.062,2.771q0,.827.041,1.593t.083,1.3h-.951a15.257,15.257,0,0,0-1.468-5.088,6.136,6.136,0,0,0-2.482-2.627,6.919,6.919,0,0,0-3.247-.765H55.517a6.062,6.062,0,0,0-1.737.186,1.123,1.123,0,0,0-.765.765,6.459,6.459,0,0,0-.186,1.82v21.84a6.491,6.491,0,0,0,.186,1.8,1.126,1.126,0,0,0,.765.786,6.061,6.061,0,0,0,1.737.186h1.7a6.073,6.073,0,0,0,3.082-.848,7.453,7.453,0,0,0,2.627-2.9,17.085,17.085,0,0,0,1.737-5.564h.951q-.124,1.406-.124,3.64,0,.993.041,2.813T65.775-43q-2.11-.083-4.757-.1T56.3-43.121H52.435q-2.42,0-5.109.021t-5.005.1v-.827a6.876,6.876,0,0,0,1.923-.331,1.441,1.441,0,0,0,.869-.993,8.179,8.179,0,0,0,.227-2.234V-67.9a8.146,8.146,0,0,0-.227-2.254,1.5,1.5,0,0,0-.869-.993,5.716,5.716,0,0,0-1.923-.31v-.827q2.316.041,5.005.083t5.109.041H56.3q1.9,0,4.323-.021T64.948-72.283ZM58.7-58.137v.827H51.587s0-.138,0-.414,0-.414,0-.414Zm1.2-5.46q-.165,2.358-.145,3.6t.021,2.275q0,1.034.041,2.275t.207,3.6h-.951a8.126,8.126,0,0,0-.869-2.73,5.385,5.385,0,0,0-1.779-1.985,4.811,4.811,0,0,0-2.73-.745v-.827a4.078,4.078,0,0,0,2.689-.889A6.7,6.7,0,0,0,58.1-61.177a8.778,8.778,0,0,0,.848-2.42Zm22.254-8.687q8.438,0,12.513,3.7t4.074,10.61a15.117,15.117,0,0,1-2.006,7.88,13.432,13.432,0,0,1-5.812,5.233A20.63,20.63,0,0,1,81.783-43q-.993,0-2.854-.062t-3.268-.062q-1.944,0-3.806.021t-2.978.1v-.827a6.876,6.876,0,0,0,1.923-.331,1.441,1.441,0,0,0,.869-.993,8.179,8.179,0,0,0,.228-2.234V-67.9a8.145,8.145,0,0,0-.228-2.254,1.5,1.5,0,0,0-.869-.993,5.716,5.716,0,0,0-1.923-.31v-.827q1.117.041,2.978.1t3.723.021q1.489-.041,3.392-.083T82.155-72.283Zm.29.745a3.207,3.207,0,0,0-2.482.7,4.827,4.827,0,0,0-.579,2.854V-47.3a4.693,4.693,0,0,0,.6,2.854,3.284,3.284,0,0,0,2.5.7,7.317,7.317,0,0,0,5.005-1.634,9.2,9.2,0,0,0,2.668-4.778,31.226,31.226,0,0,0,.807-7.652q0-6.949-2.006-10.341T82.445-71.539Zm32.388-.745v.827a5.923,5.923,0,0,0-1.944.31,1.435,1.435,0,0,0-.869.993,8.925,8.925,0,0,0-.207,2.254v20.517a8.179,8.179,0,0,0,.228,2.234,1.441,1.441,0,0,0,.869.993,6.876,6.876,0,0,0,1.923.331V-43q-1.158-.083-2.958-.1t-3.619-.021q-2.11,0-3.971.021t-2.978.1v-.827a6.876,6.876,0,0,0,1.923-.331,1.441,1.441,0,0,0,.869-.993,8.179,8.179,0,0,0,.227-2.234V-67.9a8.146,8.146,0,0,0-.227-2.254,1.5,1.5,0,0,0-.869-.993,5.716,5.716,0,0,0-1.923-.31v-.827q1.117.041,2.978.083t3.971.041q1.82,0,3.619-.041T114.833-72.283Zm29.245,0v.827a3.839,3.839,0,0,0-1.944.786,2.939,2.939,0,0,0-.869,1.779,21.225,21.225,0,0,0-.207,3.392v10.465a31.476,31.476,0,0,1-.352,4.881,10.725,10.725,0,0,1-1.344,3.888,7.413,7.413,0,0,1-3.185,2.813,12.436,12.436,0,0,1-5.46,1.034,19.028,19.028,0,0,1-3.95-.434,9.623,9.623,0,0,1-3.661-1.593,7.425,7.425,0,0,1-2.089-2.523,10.554,10.554,0,0,1-.972-3.413,36.545,36.545,0,0,1-.248-4.529V-67.9a8.146,8.146,0,0,0-.228-2.254,1.5,1.5,0,0,0-.869-.993,5.716,5.716,0,0,0-1.923-.31v-.827q1.117.041,2.978.083t3.888.041q2.027,0,3.888-.041t3.1-.083v.827a7.046,7.046,0,0,0-2.13.31,1.549,1.549,0,0,0-.972.993,7.5,7.5,0,0,0-.248,2.254v16.256a15.217,15.217,0,0,0,.538,4.447,4.539,4.539,0,0,0,1.737,2.523,5.537,5.537,0,0,0,3.144.807,6.776,6.776,0,0,0,4.467-1.344A7.22,7.22,0,0,0,139.445-49a21.393,21.393,0,0,0,.662-5.584V-64.838a22.76,22.76,0,0,0-.248-3.868,2.865,2.865,0,0,0-1.117-1.944,6.108,6.108,0,0,0-2.73-.807v-.827q.786.041,2.089.083t2.461.041q.951,0,1.923-.041T144.078-72.283Zm38.469,0v.827a5.777,5.777,0,0,0-1.9.31,1.494,1.494,0,0,0-.889.993,8.145,8.145,0,0,0-.228,2.254v20.517a7.529,7.529,0,0,0,.248,2.234,1.5,1.5,0,0,0,.889.993,6.73,6.73,0,0,0,1.882.331V-43q-1.2-.083-3.082-.1t-3.826-.021q-2.11,0-3.95.021t-3,.1v-.827a8.5,8.5,0,0,0,2.13-.331,1.49,1.49,0,0,0,.972-.993,7.529,7.529,0,0,0,.248-2.234V-69.636l.372-.041L162.071-43h-.662l-11.417-26.6v19.152a22.758,22.758,0,0,0,.248,3.868,2.786,2.786,0,0,0,1.117,1.923,6.658,6.658,0,0,0,2.73.827V-43q-.786-.083-2.089-.1t-2.461-.021q-.91,0-1.882.021a16.306,16.306,0,0,0-1.634.1v-.827a4.139,4.139,0,0,0,1.965-.807,2.923,2.923,0,0,0,.848-1.779,21.289,21.289,0,0,0,.207-3.371V-67.9a8.925,8.925,0,0,0-.207-2.254,1.435,1.435,0,0,0-.869-.993,5.923,5.923,0,0,0-1.944-.31v-.827q.662.041,1.634.083t1.882.041q2.11,0,4.054-.041t3.516-.083l8.438,19.689-1.158,1.158,7.983-20.724h3.268q1.944,0,3.826-.041T182.547-72.283Zm79.42-.538a11.972,11.972,0,0,1,3.971.517,15.2,15.2,0,0,1,2.4,1.1q.5.29.807.434a1.415,1.415,0,0,0,.6.145q.662,0,.91-1.82h.951q-.041.827-.1,1.944t-.083,2.958q-.021,1.841-.021,4.86h-.951a13.639,13.639,0,0,0-1.034-4.3,9.514,9.514,0,0,0-2.378-3.433,5.32,5.32,0,0,0-3.7-1.365,4.685,4.685,0,0,0-3.144,1.055,3.719,3.719,0,0,0-1.241,3,4.648,4.648,0,0,0,.786,2.709,10.008,10.008,0,0,0,2.378,2.3q1.593,1.158,4.033,2.854a37.934,37.934,0,0,1,3.475,2.565,10.836,10.836,0,0,1,2.461,2.9,7.657,7.657,0,0,1,.931,3.888A6.867,6.867,0,0,1,271.522-46a8.953,8.953,0,0,1-3.93,2.689,15.476,15.476,0,0,1-5.336.889,14.862,14.862,0,0,1-4.281-.5,20.107,20.107,0,0,1-2.709-1.034,2.991,2.991,0,0,0-1.406-.579q-.662,0-.91,1.82H252q.083-1.034.1-2.42t.041-3.578q.021-2.192.021-5.584h.951a21.779,21.779,0,0,0,.931,5.253,9.046,9.046,0,0,0,2.358,3.95,5.909,5.909,0,0,0,4.24,1.51,5.676,5.676,0,0,0,3.64-1.117,3.877,3.877,0,0,0,1.406-3.226,5.742,5.742,0,0,0-1.717-4.261,29.223,29.223,0,0,0-4.405-3.475q-1.944-1.282-3.64-2.606a11.364,11.364,0,0,1-2.709-2.958,7.35,7.35,0,0,1-1.013-3.95,6.708,6.708,0,0,1,1.365-4.343,7.974,7.974,0,0,1,3.619-2.5A14.075,14.075,0,0,1,261.967-72.821Zm40.744.538v.827a6.353,6.353,0,0,0-1.986,1.634,11.288,11.288,0,0,0-1.944,3.7l-8.4,23.164q-.414-.041-.889-.062t-.931-.021q-.455,0-.931.021t-.889.062L276.072-68.809a4.976,4.976,0,0,0-1.262-2.048,2.334,2.334,0,0,0-1.262-.6v-.827q1.365.041,3.206.083t3.7.041q2.027,0,3.785-.041t2.833-.083v.827a4.41,4.41,0,0,0-2.647.683q-.662.6.248,2.792l7.487,18.738-.91,1.158L296.464-62.4a18.031,18.031,0,0,0,1.241-5.315,3.667,3.667,0,0,0-.869-2.833,3.708,3.708,0,0,0-2.565-.91v-.827q1.489.041,2.709.083t2.585.041q.869,0,1.7-.041T302.71-72.283Zm14.353,0v.827a5.924,5.924,0,0,0-1.944.31,1.435,1.435,0,0,0-.869.993,8.924,8.924,0,0,0-.207,2.254v20.517a8.177,8.177,0,0,0,.228,2.234,1.441,1.441,0,0,0,.869.993,6.876,6.876,0,0,0,1.923.331V-43q-1.158-.083-2.958-.1t-3.619-.021q-2.11,0-3.971.021t-2.978.1v-.827a6.876,6.876,0,0,0,1.923-.331,1.441,1.441,0,0,0,.869-.993,8.177,8.177,0,0,0,.228-2.234V-67.9a8.144,8.144,0,0,0-.228-2.254,1.5,1.5,0,0,0-.869-.993,5.716,5.716,0,0,0-1.923-.31v-.827q1.117.041,2.978.083t3.971.041q1.82,0,3.619-.041T317.064-72.283Zm28.541,0q-.165,2.275-.228,4.385t-.062,3.226q0,.91.041,1.7t.083,1.365h-.951a22.972,22.972,0,0,0-1.985-5.812,7.708,7.708,0,0,0-2.627-3.02,6,6,0,0,0-3.164-.889h-.5v23.619a6.818,6.818,0,0,0,.352,2.523,1.889,1.889,0,0,0,1.324,1.1,11.3,11.3,0,0,0,2.833.269V-43q-1.365-.041-3.661-.083t-4.778-.041q-2.441,0-4.591.041T324.22-43v-.827a11.562,11.562,0,0,0,2.854-.269,1.836,1.836,0,0,0,1.324-1.1,7.211,7.211,0,0,0,.331-2.523V-71.332h-.455a5.968,5.968,0,0,0-3.185.889,7.81,7.81,0,0,0-2.606,3,23.524,23.524,0,0,0-2.027,5.832H319.5a12.032,12.032,0,0,0,.1-1.365q.021-.786.021-1.7,0-1.117-.062-3.226t-.228-4.385q1.944.041,4.281.083t4.654.041h8.459q2.337,0,4.654-.041T345.605-72.283Z" transform="translate(121 561.107)" fill="#e2af1f"/>
  </g>
</svg>
