<svg xmlns="http://www.w3.org/2000/svg" width="1064.751" height="170.472" viewBox="0 0 1064.751 170.472">
  <g id="Сгруппировать_70" data-name="Сгруппировать 70" transform="translate(-124.232 -475.5)">
    <path id="Объединение_3" data-name="Объединение 3" d="M0,84.735a84.736,84.736,0,1,1,84.735,84.736A84.736,84.736,0,0,1,0,84.735ZM52.745,9.005a82.46,82.46,0,1,0,31.99-6.458A82.278,82.278,0,0,0,52.745,9.005ZM84.737,163.3h-.008a74.182,74.182,0,0,1-19.452-2.429A78.262,78.262,0,0,1,36.54,146.782,73.3,73.3,0,0,1,22.8,133.068,78.285,78.285,0,0,1,8.5,103.8,72.915,72.915,0,0,1,6.212,87.268c-.027-.841-.041-1.688-.041-2.535a78.324,78.324,0,0,1,5.951-30.048A72.259,72.259,0,0,1,18.7,42.146,78.991,78.991,0,0,1,42.2,18.67a72.22,72.22,0,0,1,12.449-6.533A78.316,78.316,0,0,1,84.735,6.169c.845,0,1.689.014,2.527.04a72.893,72.893,0,0,1,16.476,2.274A78.267,78.267,0,0,1,132.955,22.7a73.374,73.374,0,0,1,13.959,14,78.274,78.274,0,0,1,13.9,28.349A74.146,74.146,0,0,1,163.3,84.726v.007h0v0h0a78.333,78.333,0,0,1-5.466,28.845,73.046,73.046,0,0,1-8.154,15.375,79.024,79.024,0,0,1-20.818,20.787,72.972,72.972,0,0,1-15.122,8.026,78.344,78.344,0,0,1-29,5.527h0Zm0-3.821a74.431,74.431,0,0,0,23.1-3.637l-23.1-71.1h0V9.991h0a74.449,74.449,0,0,0-23.1,3.635l23.1,71.11h0ZM42.949,146.713a74.7,74.7,0,0,0,12.694,6.89q2.958,1.251,5.992,2.237l23.1-71.1h0L40.8,145.207Q41.864,145.98,42.949,146.713Zm85.723-1.508a75.206,75.206,0,0,0,16.536-16.536L84.74,84.736h0ZM15.865,113.826a74.824,74.824,0,0,0,6.891,12.694q.735,1.088,1.51,2.151L84.737,84.736h0L13.63,107.841Q14.615,110.87,15.865,113.826Zm139.976-5.986a74.451,74.451,0,0,0,3.637-23.1H84.742Zm-71.1-23.1h0Zm0,0h0Zm0,0h0L40.8,24.261A75.148,75.148,0,0,0,24.263,40.8L84.737,84.735h0Zm0,0h0Zm0,0,71.1-23.1q-.986-3.032-2.237-5.991a74.7,74.7,0,0,0-6.89-12.694q-.733-1.085-1.505-2.146L84.74,84.735Zm0,0h0Zm0,0,43.936-60.471q-1.064-.775-2.153-1.51a74.748,74.748,0,0,0-12.7-6.892q-2.953-1.249-5.984-2.235l-23.1,71.108Zm0,0L13.628,61.63a74.443,74.443,0,0,0-3.635,23.1v0Z" transform="translate(705.893 476)" fill="#e2af1f" stroke="rgba(0,0,0,0)" stroke-miterlimit="10" stroke-width="1"/>
    <path id="Контур_23" data-name="Контур 23" d="M116.821-71.149v2.573a17.967,17.967,0,0,0-5.917.965,4.647,4.647,0,0,0-2.766,3.087,25.332,25.332,0,0,0-.708,7.011V6.292a23.414,23.414,0,0,0,.772,6.947,4.664,4.664,0,0,0,2.766,3.087,20.929,20.929,0,0,0,5.853,1.029v2.573q-3.731-.257-9.584-.322t-11.9-.064q-6.561,0-12.285.064t-9.326.322V17.355a26.438,26.438,0,0,0,6.625-1.029,4.635,4.635,0,0,0,3.023-3.087,23.415,23.415,0,0,0,.772-6.947V-62.916l1.158-.129L53.144,19.928H51.086l-35.5-82.715v59.56A70.779,70.779,0,0,0,16.353,8.8a8.664,8.664,0,0,0,3.473,5.982q2.7,1.8,8.49,2.573v2.573q-2.444-.257-6.5-.322t-7.654-.064q-2.83,0-5.853.064a50.714,50.714,0,0,0-5.081.322V17.355a12.874,12.874,0,0,0,6.11-2.508,9.092,9.092,0,0,0,2.637-5.532,66.206,66.206,0,0,0,.643-10.484V-57.513a27.757,27.757,0,0,0-.643-7.011,4.463,4.463,0,0,0-2.7-3.087,18.42,18.42,0,0,0-6.046-.965v-2.573q2.058.129,5.081.257t5.853.129q6.561,0,12.607-.129t10.934-.257L63.95-9.916l-3.6,3.6L85.175-70.763H95.338q6.046,0,11.9-.129T116.821-71.149Zm78.342,0q-.515,6.046-.708,11.706t-.193,8.619q0,2.573.129,4.953t.257,4.052h-2.959q-1.415-10.034-4.567-15.823A19.081,19.081,0,0,0,179.4-65.81a21.518,21.518,0,0,0-10.1-2.38h-3.473a18.851,18.851,0,0,0-5.4.579,3.493,3.493,0,0,0-2.38,2.38,20.087,20.087,0,0,0-.579,5.66V8.351a20.188,20.188,0,0,0,.579,5.6,3.5,3.5,0,0,0,2.38,2.444,18.851,18.851,0,0,0,5.4.579h5.274a18.887,18.887,0,0,0,9.584-2.637q4.567-2.637,8.169-9t5.4-17.3h2.959q-.386,4.374-.386,11.32,0,3.087.129,8.748t.772,11.835q-6.561-.257-14.794-.322t-14.665-.064H156.249q-7.525,0-15.887.064t-15.565.322V17.355a21.384,21.384,0,0,0,5.982-1.029,4.482,4.482,0,0,0,2.7-3.087,25.435,25.435,0,0,0,.708-6.947V-57.513a25.332,25.332,0,0,0-.708-7.011,4.664,4.664,0,0,0-2.7-3.087,17.776,17.776,0,0,0-5.982-.965v-2.573q7.2.129,15.565.257t15.887.129h12.028q5.917,0,13.443-.064T195.162-71.149ZM175.738-27.154v2.573H153.612s0-.429,0-1.286,0-1.286,0-1.286Zm3.731-16.98q-.515,7.332-.45,11.192t.064,7.075q0,3.216.129,7.075T179.854-7.6H176.9a25.272,25.272,0,0,0-2.7-8.49,16.747,16.747,0,0,0-5.531-6.175,14.962,14.962,0,0,0-8.49-2.316v-2.573a12.683,12.683,0,0,0,8.362-2.766,20.821,20.821,0,0,0,5.339-6.689,27.3,27.3,0,0,0,2.637-7.525Zm69.208-27.014q26.242,0,38.913,11.513t12.671,33q0,14.022-6.239,24.506a41.771,41.771,0,0,1-18.074,16.273q-11.835,5.789-28.429,5.789-3.087,0-8.876-.193t-10.163-.193q-6.046,0-11.835.064t-9.262.322V17.355a21.384,21.384,0,0,0,5.982-1.029,4.482,4.482,0,0,0,2.7-3.087,25.435,25.435,0,0,0,.708-6.947V-57.513a25.332,25.332,0,0,0-.708-7.011,4.664,4.664,0,0,0-2.7-3.087,17.776,17.776,0,0,0-5.982-.965v-2.573q3.473.129,9.262.322t11.578.064q4.631-.129,10.548-.257T248.677-71.149Zm.9,2.316q-5.917,0-7.718,2.187t-1.8,8.876V6.55q0,6.689,1.865,8.876t7.783,2.187q9.777,0,15.565-5.081t8.3-14.858a97.11,97.11,0,0,0,2.508-23.8q0-21.611-6.239-32.16T249.577-68.833ZM350.3-71.149v2.573a18.42,18.42,0,0,0-6.046.965,4.463,4.463,0,0,0-2.7,3.087,27.753,27.753,0,0,0-.643,7.011V6.292a25.435,25.435,0,0,0,.708,6.947,4.482,4.482,0,0,0,2.7,3.087,21.384,21.384,0,0,0,5.982,1.029v2.573q-3.6-.257-9.2-.322t-11.256-.064q-6.561,0-12.349.064t-9.262.322V17.355a21.384,21.384,0,0,0,5.982-1.029,4.483,4.483,0,0,0,2.7-3.087,25.435,25.435,0,0,0,.707-6.947V-57.513a25.332,25.332,0,0,0-.707-7.011,4.664,4.664,0,0,0-2.7-3.087,17.776,17.776,0,0,0-5.982-.965v-2.573q3.473.129,9.262.257t12.349.129q5.66,0,11.256-.129T350.3-71.149Zm90.948,0v2.573a11.938,11.938,0,0,0-6.046,2.444,9.14,9.14,0,0,0-2.7,5.531,66,66,0,0,0-.643,10.548v32.546a97.886,97.886,0,0,1-1.093,15.179,33.353,33.353,0,0,1-4.181,12.092,23.055,23.055,0,0,1-9.905,8.748q-6.561,3.216-16.98,3.216a59.175,59.175,0,0,1-12.285-1.351,29.926,29.926,0,0,1-11.385-4.953,23.092,23.092,0,0,1-6.5-7.847A32.822,32.822,0,0,1,366.51-3.034a113.647,113.647,0,0,1-.772-14.086V-57.513a25.33,25.33,0,0,0-.708-7.011,4.664,4.664,0,0,0-2.7-3.087,17.776,17.776,0,0,0-5.982-.965v-2.573q3.473.129,9.262.257t12.092.129q6.3,0,12.092-.129t9.648-.257v2.573a21.91,21.91,0,0,0-6.625.965,4.816,4.816,0,0,0-3.023,3.087,23.318,23.318,0,0,0-.772,7.011V-6.957a47.324,47.324,0,0,0,1.672,13.829,14.116,14.116,0,0,0,5.4,7.847q3.731,2.508,9.777,2.508,8.876,0,13.893-4.181a22.453,22.453,0,0,0,7.075-11.771A66.529,66.529,0,0,0,428.9-16.091v-31.9a70.775,70.775,0,0,0-.772-12.028,8.909,8.909,0,0,0-3.473-6.046q-2.7-1.865-8.49-2.508v-2.573q2.444.129,6.5.257t7.654.129q2.959,0,5.982-.129T441.25-71.149Zm119.635,0v2.573a17.967,17.967,0,0,0-5.917.965,4.647,4.647,0,0,0-2.766,3.087,25.332,25.332,0,0,0-.708,7.011V6.292a23.413,23.413,0,0,0,.772,6.947,4.664,4.664,0,0,0,2.766,3.087,20.928,20.928,0,0,0,5.853,1.029v2.573q-3.73-.257-9.584-.322t-11.9-.064q-6.561,0-12.285.064t-9.326.322V17.355a26.437,26.437,0,0,0,6.625-1.029,4.635,4.635,0,0,0,3.023-3.087,23.413,23.413,0,0,0,.772-6.947V-62.916l1.158-.129-32.16,82.973H495.15l-35.5-82.715v59.56A70.783,70.783,0,0,0,460.417,8.8a8.664,8.664,0,0,0,3.473,5.982q2.7,1.8,8.49,2.573v2.573q-2.444-.257-6.5-.322t-7.654-.064q-2.83,0-5.853.064a50.713,50.713,0,0,0-5.081.322V17.355a12.874,12.874,0,0,0,6.11-2.508,9.092,9.092,0,0,0,2.637-5.532,66.21,66.21,0,0,0,.643-10.484V-57.513a27.758,27.758,0,0,0-.643-7.011,4.463,4.463,0,0,0-2.7-3.087,18.421,18.421,0,0,0-6.046-.965v-2.573q2.058.129,5.081.257t5.853.129q6.561,0,12.607-.129t10.934-.257L508.014-9.916l-3.6,3.6L529.24-70.763H539.4q6.046,0,11.9-.129T560.885-71.149Zm246.988-1.672q7.976,0,12.349,1.608a47.264,47.264,0,0,1,7.461,3.409q1.544.9,2.508,1.351a4.4,4.4,0,0,0,1.865.45q2.058,0,2.83-5.66h2.959q-.129,2.573-.322,6.046t-.257,9.2Q837.2-50.695,837.2-41.3h-2.959a42.414,42.414,0,0,0-3.216-13.379,29.587,29.587,0,0,0-7.4-10.677,16.543,16.543,0,0,0-11.513-4.245,14.569,14.569,0,0,0-9.777,3.28q-3.859,3.28-3.859,9.326a14.453,14.453,0,0,0,2.444,8.426,31.124,31.124,0,0,0,7.4,7.14q4.953,3.6,12.542,8.876a117.964,117.964,0,0,1,10.806,7.976,33.7,33.7,0,0,1,7.654,9A23.813,23.813,0,0,1,842.22-3.484q0,8.49-4.631,14.086a27.843,27.843,0,0,1-12.221,8.362,48.129,48.129,0,0,1-16.594,2.766,46.218,46.218,0,0,1-13.314-1.544,62.534,62.534,0,0,1-8.426-3.216,9.3,9.3,0,0,0-4.374-1.8q-2.058,0-2.83,5.66h-2.959q.257-3.216.322-7.525t.129-11.127q.064-6.818.064-17.366h2.959a67.733,67.733,0,0,0,2.894,16.337,28.133,28.133,0,0,0,7.332,12.285q4.953,4.7,13.186,4.7,6.946,0,11.32-3.473T819.451,4.62a17.856,17.856,0,0,0-5.339-13.25,90.882,90.882,0,0,0-13.7-10.806q-6.046-3.988-11.32-8.1a35.343,35.343,0,0,1-8.426-9.2,22.858,22.858,0,0,1-3.152-12.285q0-8.233,4.245-13.507a24.8,24.8,0,0,1,11.256-7.783A43.77,43.77,0,0,1,807.873-72.821Zm126.71,1.672v2.573a19.757,19.757,0,0,0-6.175,5.081q-3.345,3.795-6.046,11.513L896.249,20.057q-1.286-.129-2.766-.193t-2.894-.064q-1.415,0-2.894.064t-2.766.193l-33.189-80.4q-1.8-4.631-3.924-6.368a7.258,7.258,0,0,0-3.923-1.865v-2.573q4.245.129,9.969.257t11.513.129q6.3,0,11.771-.129t8.812-.257v2.573q-6.175.257-8.233,2.123t.772,8.683L901.78.5l-2.83,3.6L915.159-40.4q3.731-10.42,3.859-16.53t-2.7-8.812q-2.83-2.7-7.976-2.83v-2.573q4.631.129,8.426.257t8.04.129q2.7,0,5.274-.129T934.583-71.149Zm44.638,0v2.573a18.421,18.421,0,0,0-6.046.965,4.463,4.463,0,0,0-2.7,3.087,27.755,27.755,0,0,0-.643,7.011V6.292a25.435,25.435,0,0,0,.708,6.947,4.482,4.482,0,0,0,2.7,3.087,21.385,21.385,0,0,0,5.982,1.029v2.573q-3.6-.257-9.2-.322t-11.256-.064q-6.561,0-12.349.064t-9.262.322V17.355a21.384,21.384,0,0,0,5.982-1.029,4.483,4.483,0,0,0,2.7-3.087,25.435,25.435,0,0,0,.707-6.947V-57.513a25.332,25.332,0,0,0-.707-7.011,4.664,4.664,0,0,0-2.7-3.087,17.776,17.776,0,0,0-5.982-.965v-2.573q3.473.129,9.262.257t12.349.129q5.66,0,11.256-.129T979.221-71.149Zm88.761,0q-.514,7.075-.708,13.636t-.193,10.034q0,2.83.129,5.274t.257,4.245h-2.959q-2.573-11.449-6.175-18.074t-8.169-9.391a18.663,18.663,0,0,0-9.841-2.766h-1.544V5.263a21.2,21.2,0,0,0,1.094,7.847,5.876,5.876,0,0,0,4.116,3.409,35.144,35.144,0,0,0,8.812.836v2.573q-4.245-.129-11.385-.257t-14.858-.129q-7.59,0-14.279.129t-10.806.257V17.355a35.957,35.957,0,0,0,8.876-.836,5.711,5.711,0,0,0,4.117-3.409,22.423,22.423,0,0,0,1.029-7.847V-68.19h-1.415a18.56,18.56,0,0,0-9.905,2.766q-4.5,2.766-8.1,9.326t-6.3,18.138h-2.959a37.385,37.385,0,0,0,.321-4.245q.064-2.444.064-5.274,0-3.473-.193-10.034T986.3-71.149q6.046.129,13.314.257t14.472.129h26.307q7.268,0,14.472-.129T1067.983-71.149Z" transform="translate(121 587.031)" fill="#e2af1f"/>
  </g>
</svg>
