<svg xmlns="http://www.w3.org/2000/svg" width="30.318" height="22.59" viewBox="0 0 30.318 22.59">
  <g id="ic-social-youtube" transform="translate(1.001 1)">
    <path id="Контур_471" data-name="Контур 471" d="M16.142,25.288a60.6,60.6,0,0,0,10.4-.636,3.774,3.774,0,0,0,2.573-2.064,19.181,19.181,0,0,0,1.159-7.576,19.181,19.181,0,0,0-1.159-7.576,4.142,4.142,0,0,0-2.573-2.064,60.6,60.6,0,0,0-10.4-.636,60.6,60.6,0,0,0-10.4.636A3.774,3.774,0,0,0,3.166,7.435a19.181,19.181,0,0,0-1.159,7.576,19.181,19.181,0,0,0,1.159,7.576,4.142,4.142,0,0,0,2.573,2.064,60.6,60.6,0,0,0,10.4.636Z" transform="translate(-1.983 -4.717)" fill="none" stroke="#fff" stroke-linecap="round" stroke-linejoin="round" stroke-width="2"/>
    <path id="Контур_472" data-name="Контур 472" d="M9.53,16.767V9.785a.848.848,0,0,1,1.286-.749l5.824,3.505a.834.834,0,0,1,0,1.413l-5.824,3.562a.848.848,0,0,1-1.286-.749Z" transform="translate(1.137 -2.981)" fill="none" stroke="#fff" stroke-linecap="round" stroke-linejoin="round" stroke-width="2"/>
  </g>
</svg>
